<?xml version="1.0" encoding="UTF-8"?>
<svg id="Livello_1" data-name="Livello 1" xmlns="http://www.w3.org/2000/svg" viewBox="0 0 1080 1080">
    <defs>
        <style>
            .cls-1 {
            fill: #ffa931;
            }

            .cls-1, .cls-2 {
            stroke-width: 0px;
            }

            .cls-2 {
            fill: #01233d;
            }
        </style>
    </defs>
    <path class="cls-2"
          d="M917.69,260.65l-124.68-.8c-2.31.01-4.36,1.45-5.14,3.62l-140.94,367.15c-5.5,15.26-5.65,31.93-.44,47.29l44.82,131.96c1.59,4.7,8.11,5.02,10.16.5l80.21-177.31c2.43-5.37,10.46-3.63,10.45,2.26l-.35,224.22c-.01,3.03,2.44,5.48,5.47,5.48,34.77,0,125.92-1.16,125.92-1.16V266.12c0-3.03-2.45-5.48-5.48-5.47ZM351.09,637.32v.99c.26-.33.51-.66.76-.99h-.76Z"/>
    <g>
        <path class="cls-2" d="M641.85,863.86h-.45v-.04c.14.02.3.03.45.04Z"/>
        <path class="cls-2" d="M641.85,863.86h-.45v-.04c.14.02.3.03.45.04Z"/>
        <path class="cls-2"
              d="M681.97,864.26h-29.17c-3.68,0-7.33-.13-10.95-.4-.15-.01-.31-.02-.46-.04-3.7-.27-7.36-.67-10.99-1.21-3.14-.47-6.25-1.03-9.33-1.68-22.75-4.84-43.84-14.8-61.81-28.79-12.21-9.5-22.98-20.86-31.86-33.74-9.04-13.1-16.11-27.77-20.76-43.66l-26.35-79.88h-144.14l1.91-11.27c2.42-2.45,4.77-4.97,7.03-7.55,4.56-5.16,8.82-10.57,12.77-16.24.11-.16.22-.32.33-.48h115.7l-51.13-174.84c.04-.09.08-.19.12-.28,1.37-3.07,2.68-6.29,3.92-9.56.32-.83.63-1.67.93-2.51.72-1.96,1.44-4.02,2.14-6.17.17-.5.33-1.01.47-1.45.25-.77.49-1.53.72-2.31.14-.46.28-.92.42-1.38.35-1.15.68-2.31,1.02-3.51,1.82-6.51,3.34-13.23,4.49-19.97,1.3-7.6,1.91-15,2.49-22.14.26-3.14.5-6.11.8-9.06l1.67-16.59-.73-.21c4.96-8.88,9.16-17.81,12.59-26.84,1.99-5.21,3.73-10.45,5.21-15.74,4.83-17.21,7.01-34.86,6.61-53.21l-.42-11.5h12.28l.25.72.03.09,199.92,588.8,4.14,12.2.14.4Z"/>
    </g>
    <path class="cls-1"
          d="M422.99,360.94c-.47.83-.95,1.66-1.44,2.48-1.75,2.96-3.57,5.85-5.47,8.68-4.07,6.1-8.48,11.91-13.2,17.44-2.19,2.59-4.46,5.12-6.79,7.59-10.26,10.89-21.73,20.66-34.16,29.54.71-.3,1.41-.61,2.1-.92.42-.19.84-.38,1.26-.57,1.06-.49,2.1-.99,3.14-1.5.39-.2.78-.39,1.16-.59.64-.32,1.26-.65,1.89-.99.64-.34,1.28-.68,1.91-1.04.52-.28,1.03-.57,1.54-.87,2.41-1.38,4.76-2.83,7.07-4.35.7-.46,1.4-.93,2.09-1.4.56-.38,1.11-.76,1.66-1.15.53-.37,1.05-.75,1.57-1.13.61-.43,1.21-.87,1.8-1.32.54-.4,1.08-.8,1.61-1.21,1.81-1.38,3.6-2.8,5.36-4.25,2.89-2.4,5.72-4.87,8.49-7.42.39-.35.78-.71,1.17-1.07.36-.34.71-.67,1.06-1,.81-.76,1.62-1.53,2.43-2.31.1-.1.2-.19.3-.29,2.28-2.2,4.52-4.43,6.74-6.69.93-.94,1.85-1.89,2.77-2.84.44.13.88.25,1.33.38-1,9.95-1.42,19.99-3.1,29.83-1.05,6.11-2.4,12.09-4.04,17.94-.3,1.06-.6,2.12-.92,3.17-.13.44-.26.88-.4,1.32-.19.66-.4,1.31-.61,1.96-.15.47-.3.94-.45,1.4-.61,1.86-1.25,3.71-1.93,5.55-.26.73-.53,1.46-.81,2.18-1.12,2.97-2.32,5.91-3.61,8.81-.19.46-.39.92-.6,1.37-.31.71-.63,1.42-.97,2.13-.48,1.04-.97,2.08-1.47,3.11-.07.14-.13.27-.2.41-.31.65-.63,1.29-.96,1.93-1.34,2.69-2.75,5.35-4.22,7.98-.02.04-.03.07-.06.1-.43.77-.86,1.54-1.31,2.31-.3.53-.6,1.05-.91,1.57-.9,1.54-1.83,3.07-2.77,4.58-.46.73-.92,1.46-1.38,2.19-.69,1.08-1.39,2.16-2.1,3.23-3.76,5.69-7.81,11.25-12.12,16.68-17.06,21.5-37.33,39.58-59.78,55.26-.93.65-1.85,1.32-2.75,2-.18.14-.26.41-.88,1.48,20.56-10.72,40.37-21.04,60.98-31.78-.1,2.79-.26,5.55-.47,8.3-1.98,26.34-8.82,50.76-21.19,73.27-1.27,2.32-2.6,4.62-4,6.9-1.85,3.05-3.81,6.06-5.89,9.03-9.68,13.89-21.04,25.66-33.89,35.57-5.09,3.93-10.42,7.57-15.97,10.94-2.02,1.22-4.06,2.41-6.14,3.55-7.98,4.44-16.39,8.34-25.2,11.77,4.89,1.22,14.88,1.12,26.04-1.46,5.92-1.37,12.16-3.43,18.14-6.36,3.95-1.92,7.78-4.23,11.33-6.96-1.01,5.92-3.16,12.57-6.58,19.46-4.47,9-11.11,18.41-20.19,27.09-13.24,12.66-31.66,23.8-56.1,29.91,7.34,1.13,13.33,3.29,17.57,9.56-10.59-1.98-20.62-3.28-29.07,4.18,3.47,1.85,7.11,3.12,9.83,5.46,2.71,2.31,4.49,5.71,6.45,8.32-5.11-1.01-9.81-2.65-14.51-2.69-6.56-.05-8.17,2.08-8.7,8.5-2.16,26.36-4.33,52.72-6.5,79.07-.28,3.33-.55,6.67-.82,10-1.71,20.66-3.41,41.31-5.11,61.96-.08,1.07-.28,2.14-1.11,3.32-.94-3.21-1.94-6.39-2.81-9.62-4.53-16.7-4.07-33.68-2.93-50.72.11-1.65.22-3.29.35-4.94h0c.09-1.38.2-2.74.3-4.1.15-1.97.31-3.93.47-5.9,5.86-70.89,19.65-140.17,43.77-207.36,14.17-39.45,32.12-77.29,50.04-115.13,20.23-42.75,40.61-85.42,60.28-128.43,8.86-19.37,15.82-39.57,19.22-60.76.9-5.56,1.16-11.22,1.71-16.83-.34-.09-.69-.18-1.04-.26-1.33,4.69-2.6,9.4-4.02,14.07-14.39,47.41-34.87,92.19-59.34,135.16-37.28,65.47-67.34,134.03-88.92,206.23-10.63,35.54-19.18,71.59-21.14,108.81-.38,7.25-.95,12.27-9.5,13.89-4.21.8-7.85,4.6-11.44,6.85,2.07-5.7,8.11-11.81,16.55-16.44-4.09-4.93-17.16-8.16-32.42-3.89-2.24.61-4.52,1.4-6.82,2.36,1.84-2.6,4.74-5.03,8.43-7.15l7.66-22.62c-.7-.55-1.41-1.11-2.1-1.67-.7-.56-1.39-1.13-2.08-1.7s-1.37-1.15-2.04-1.73c-.68-.59-1.35-1.18-2.01-1.77-1.52-1.35-3.02-2.74-4.47-4.17t-.01-.01c-.73-.72-1.45-1.44-2.16-2.17-.71-.73-1.41-1.48-2.11-2.23-.69-.75-1.37-1.51-2.05-2.28-.03-.03-.05-.06-.08-.09-1.32-1.51-2.6-3.07-3.83-4.67-.63-.81-1.25-1.64-1.86-2.48-.3-.42-.61-.84-.9-1.27-.24-.33-.47-.66-.7-1-.65-.95-1.29-1.92-1.91-2.91-.53-.84-1.05-1.7-1.55-2.56-1.5-2.52-2.88-5.16-4.16-7.9-.22-.46-.43-.91-.63-1.38-.82-1.83-1.6-3.72-2.32-5.66,11.26,5.44,21.78,9.21,34.15,5.83-5.14-3.98-10.14-7.16-14.3-11.21-7.1-6.92-14.13-14.02-20.34-21.72-6.71-8.31-8.58-18.32-7.1-28.93,2.51-18.02,8.79-34.9,15.56-51.63,2.01-4.98,4.26-9.88,6.59-15.27,13,14.2,28.51,23.33,46.91,28.01-1.11-1.05-2.2-2.12-3.33-3.15-12.44-11.39-23.22-24.08-31.87-38.65-4.8-8.07-5.45-16.16-1.89-24.55,2.85-6.71,5.83-13.45,9.56-19.7,12.3-20.53,27.44-38.96,43.46-56.67.41-.45.88-.85,1.46-1.41,3.82,5.12,7.81,9.97,12.27,14.2.28.28.57.55.87.81.34.32.69.63,1.04.94.7.62,1.41,1.22,2.14,1.8.36.3.72.58,1.09.86.37.28.74.56,1.12.84.35.26.7.51,1.06.76.06.04.12.08.18.13.32.22.64.44.97.65.55.36,1.11.72,1.68,1.06.26.17.52.32.79.47.81.48,1.64.93,2.48,1.36.26.14.51.27.77.38.29.15.59.3.88.43.5.23,1,.46,1.51.67.35.16.71.3,1.08.44.29.13.59.24.89.35.42.16.84.32,1.27.46.49.17.98.34,1.48.49.55.17,1.1.33,1.66.49,2.23.61,4.58,1.09,7.04,1.42-1.7-2.23-2.99-3.67-4.01-5.29-.37-.59-.74-1.19-1.12-1.78-5.46-8.65-11.11-17.2-16.09-26.12-4.82-8.67-3.35-16.61,2.9-24.8,13.92-18.25,27.44-36.85,40.2-55.93,8.1-12.12,15.06-25.09,21.49-38.2,3.88-7.9,5.75-16.78,8.46-25.03.13.18.26.37.4.55,2.34,3.26,4.74,6.59,7.17,9.99l29.24-86.41h4.46c.26-.72.51-1.43.76-2.15.13-.36.25-.72.37-1.08.2-.58.39-1.15.58-1.73.21-.64.41-1.28.6-1.92.13-.38.24-.76.35-1.15.2-.65.39-1.31.57-1.97.15-.51.3-1.02.43-1.54.28-1.04.55-2.09.79-3.14.1-.41.2-.81.29-1.22.06-.27.12-.54.18-.82.08-.37.16-.74.23-1.11.01-.06.03-.12.04-.19.26-1.29.5-2.59.71-3.9.09-.56.18-1.13.26-1.7.05-.36.1-.72.15-1.08.07-.51.13-1.02.19-1.53.09-.82.17-1.65.24-2.48.05-.64.1-1.28.14-1.92.04-.63.07-1.26.09-1.9.02-.41.03-.83.04-1.25.03-1.34.03-2.68-.01-4.03-.15-5.33-1.29-10.63-2.06-16.51,7.78,8.86,15.29,17.41,22.8,25.96.17-.11.34-.23.51-.34-5.12-10.92-10.15-21.88-15.41-32.73-1.41-2.9-1.59-5.29-.38-8.44,6.94-18.04,11.29-36.58,9.54-56.14-1.05-11.71-4.94-22.29-12.4-31.5.23-.29.45-.57.67-.86,5.23,3.51,10.71,6.7,15.67,10.56,24.79,19.31,41.63,44.59,54.12,73.05,7.75,17.65,13.22,36,17.26,54.76.53,2.46,1.04,4.92,1.52,7.39.12.59.12,1.26.04,1.94-.02.22-.06.45-.11.67-.08.39-.18.78-.32,1.15-.04.12-.09.24-.14.36-.12.3-.26.59-.41.85-.09.16-.19.31-.29.45-1.75,2.4-3.51,4.8-5.27,7.19-.16.22-.32.44-.48.66h-.01c-.98,1.35-1.97,2.7-2.97,4.05-.37.5-.74,1.01-1.11,1.51-1.36,1.85-2.73,3.71-4.09,5.56-8.67,11.76-17.39,23.5-26.09,35.25-.74,1-1.5,2.01-1.72,3.55,10.92-9.77,21.83-19.54,33.11-29.64,3.32-2.97,6.67-5.97,10.06-9,.7,31.82-7.48,60.33-22.64,86.95Z"/>
    <path class="cls-1"
          d="M445.63,273.99c-3.39,3.03-6.74,6.03-10.06,9-11.28,10.1-22.19,19.87-33.11,29.64.22-1.54.98-2.55,1.72-3.55,8.7-11.75,17.42-23.49,26.09-35.25,1.36-1.85,2.73-3.71,4.09-5.56.37-.5.74-1.01,1.11-1.51,1-1.35,1.99-2.7,2.98-4.05.16-.22.32-.44.48-.66,1.76-2.39,3.52-4.79,5.27-7.19.1-.14.2-.29.29-.45.15-.26.29-.55.41-.85.05-.12.1-.24.14-.36.14-.37.24-.76.32-1.15.05-.22.09-.45.11-.67.08-.68.08-1.35-.04-1.94-.48-2.47-.99-4.93-1.52-7.39-4.04-18.76-9.51-37.11-17.26-54.76-12.49-28.46-29.33-53.74-54.12-73.05-4.96-3.86-10.44-7.05-15.67-10.56-.22.29-.44.57-.67.86,7.46,9.21,11.35,19.79,12.4,31.5,1.75,19.56-2.6,38.1-9.54,56.14-1.21,3.15-1.03,5.54.38,8.44,5.26,10.85,10.29,21.81,15.41,32.73-.17.11-.34.23-.51.34-7.51-8.55-15.02-17.1-22.8-25.96.77,5.88,1.91,11.18,2.06,16.51.04,1.35.04,2.69.01,4.03-.01.42-.02.84-.04,1.25-.02.64-.05,1.27-.09,1.9-.04.64-.08,1.28-.14,1.92-.07.83-.15,1.66-.24,2.48-.06.51-.12,1.02-.19,1.53-.05.36-.1.72-.15,1.08-.08.57-.16,1.13-.26,1.7-.21,1.3-.44,2.6-.71,3.9-.01.07-.03.13-.04.19-.07.37-.15.74-.23,1.11-.06.28-.12.55-.18.82-.09.41-.19.81-.29,1.22-.24,1.05-.51,2.1-.79,3.14-.13.52-.28,1.03-.43,1.54-.18.66-.37,1.32-.57,1.97-.11.39-.22.77-.35,1.15-.19.64-.39,1.28-.6,1.92-.19.58-.38,1.15-.58,1.73-.12.36-.24.72-.37,1.08-.25.72-.5,1.43-.76,2.15-.54,1.5-1.1,3-1.69,4.49-6.31,16.07-13.27,31.88-19.72,47.9-5.42,13.45-6.12,27.22-1.63,41.09,1.61,4.98,3.53,9.86,5.56,15.47-5.59-7.78-11.01-15.31-16.22-22.54-2.43-3.4-4.83-6.73-7.17-9.99-.14-.18-.27-.37-.4-.55-2.71,8.25-4.58,17.13-8.46,25.03-6.43,13.11-13.39,26.08-21.49,38.2-12.76,19.08-26.28,37.68-40.2,55.93-6.25,8.19-7.72,16.13-2.9,24.8,4.98,8.92,10.63,17.47,16.09,26.12.38.59.75,1.19,1.12,1.78,1.02,1.62,2.31,3.06,4.01,5.29-2.46-.33-4.81-.81-7.04-1.42-.56-.15-1.12-.32-1.66-.49-.5-.15-.99-.32-1.48-.49-.43-.14-.85-.3-1.27-.46-.3-.11-.6-.22-.89-.35-.37-.14-.73-.28-1.08-.44-.51-.21-1.01-.44-1.51-.67-.29-.13-.59-.28-.88-.43-.26-.12-.52-.25-.77-.38-.84-.43-1.67-.88-2.48-1.36-.27-.15-.53-.3-.79-.47-.57-.34-1.13-.7-1.68-1.06-.33-.21-.65-.43-.97-.65-.06-.05-.12-.09-.18-.13-.36-.25-.71-.5-1.06-.76-.38-.28-.75-.56-1.12-.84-.37-.28-.73-.57-1.09-.86-.73-.58-1.44-1.18-2.14-1.8-.35-.31-.7-.62-1.04-.94-.3-.26-.59-.53-.87-.81-4.46-4.23-8.45-9.08-12.27-14.2-.58.56-1.05.96-1.46,1.41-16.02,17.71-31.16,36.14-43.46,56.67-3.73,6.25-6.71,12.99-9.56,19.7-3.56,8.39-2.91,16.48,1.89,24.55,8.65,14.57,19.43,27.26,31.87,38.65,1.13,1.03,2.22,2.1,3.33,3.15-18.4-4.68-33.91-13.81-46.91-28.01-2.33,5.39-4.58,10.29-6.59,15.27-6.77,16.73-13.05,33.61-15.56,51.63-1.48,10.61.39,20.62,7.1,28.93,6.21,7.7,13.24,14.8,20.34,21.72,4.16,4.05,9.16,7.23,14.3,11.21-12.37,3.38-22.89-.39-34.15-5.83.72,1.94,1.5,3.83,2.32,5.66.2.47.41.92.63,1.38,1.28,2.74,2.66,5.38,4.16,7.9.5.86,1.02,1.72,1.55,2.56.62.99,1.26,1.96,1.91,2.91.23.34.46.67.7,1,.29.43.6.85.9,1.27.61.84,1.23,1.67,1.86,2.48,1.24,1.6,2.52,3.16,3.83,4.67.03.03.05.06.08.09.68.77,1.36,1.53,2.05,2.28.7.75,1.4,1.5,2.11,2.23.71.73,1.43,1.45,2.16,2.17t.01.01c1.46,1.42,2.95,2.81,4.47,4.17.66.59,1.33,1.18,2.01,1.77.67.58,1.35,1.16,2.04,1.73s1.38,1.14,2.08,1.7c.69.56,1.4,1.12,2.1,1.67,6.63,5.2,13.68,9.99,20.89,14.66-10.98.78-21.28,3.77-28.55,7.96-3.69,2.12-6.59,4.55-8.43,7.15,2.3-.96,4.58-1.75,6.82-2.36,15.26-4.27,28.33-1.04,32.42,3.89-8.44,4.63-14.48,10.74-16.55,16.44,3.59-2.25,7.23-6.05,11.44-6.85,8.55-1.62,9.12-6.64,9.5-13.89,1.96-37.22,10.51-73.27,21.14-108.81,21.58-72.2,51.64-140.76,88.92-206.23,24.47-42.97,44.95-87.75,59.34-135.16,1.42-4.67,2.69-9.38,4.02-14.07.35.08.7.17,1.04.26-.55,5.61-.81,11.27-1.71,16.83-3.4,21.19-10.36,41.39-19.22,60.76-19.67,43.01-40.05,85.68-60.28,128.43-17.92,37.84-35.87,75.68-50.04,115.13-24.12,67.19-37.91,136.47-43.77,207.36-.16,1.97-.32,3.93-.47,5.9-.1,1.36-.21,2.72-.3,4.09h0c-.13,1.66-.24,3.3-.35,4.95-1.14,17.04-1.6,34.02,2.93,50.72.87,3.23,1.87,6.41,2.81,9.62.83-1.18,1.03-2.25,1.11-3.32,1.7-20.65,3.4-41.3,5.11-61.96.27-3.33.54-6.67.82-10,2.17-26.35,4.34-52.71,6.5-79.07.53-6.42,2.14-8.55,8.7-8.5,4.7.04,9.4,1.68,14.51,2.69-1.96-2.61-3.74-6.01-6.45-8.32-2.72-2.34-6.36-3.61-9.83-5.46,8.45-7.46,18.48-6.16,29.07-4.18-4.24-6.27-10.23-8.43-17.57-9.56,24.44-6.11,42.86-17.25,56.1-29.91,9.08-8.68,15.72-18.09,20.19-27.09,3.42-6.89,5.57-13.54,6.58-19.46-3.55,2.73-7.38,5.04-11.33,6.96-5.98,2.93-12.22,4.99-18.14,6.36-11.16,2.58-21.15,2.68-26.04,1.46,8.81-3.43,17.22-7.33,25.2-11.77,2.08-1.14,4.12-2.33,6.14-3.55,5.55-3.37,10.88-7.01,15.97-10.94,12.85-9.91,24.21-21.68,33.89-35.57,2.08-2.97,4.04-5.98,5.89-9.03,1.4-2.28,2.73-4.58,4-6.9,12.37-22.51,19.21-46.93,21.19-73.27.21-2.75.37-5.51.47-8.3-20.61,10.74-40.42,21.06-60.98,31.78.62-1.07.7-1.34.88-1.48.9-.68,1.82-1.35,2.75-2,22.45-15.68,42.72-33.76,59.78-55.26,4.31-5.43,8.36-10.99,12.12-16.68.71-1.07,1.41-2.15,2.1-3.23.46-.73.92-1.46,1.38-2.19.94-1.51,1.87-3.04,2.77-4.58.31-.52.61-1.04.91-1.57.45-.77.88-1.54,1.31-2.31.03-.03.04-.06.06-.1,1.47-2.63,2.88-5.29,4.22-7.98.33-.64.65-1.28.96-1.93.07-.14.13-.27.2-.41.5-1.03.99-2.07,1.47-3.11.34-.71.66-1.42.97-2.13.21-.45.41-.91.6-1.37,1.29-2.9,2.49-5.84,3.61-8.81.28-.72.55-1.45.81-2.18.68-1.84,1.32-3.69,1.93-5.55.15-.46.3-.93.45-1.4.21-.65.42-1.3.61-1.96.14-.44.27-.88.4-1.32.32-1.05.62-2.11.92-3.17,1.64-5.85,2.99-11.83,4.04-17.94,1.68-9.84,2.1-19.88,3.1-29.83-.45-.13-.89-.25-1.33-.38-.92.95-1.84,1.9-2.77,2.84-2.22,2.26-4.46,4.49-6.74,6.69-.1.1-.2.19-.3.29-.81.78-1.62,1.55-2.43,2.31-.35.33-.7.66-1.06,1-.39.36-.78.72-1.17,1.07-2.77,2.55-5.6,5.02-8.49,7.42-1.76,1.45-3.55,2.87-5.36,4.25-.53.41-1.07.81-1.61,1.21-.59.45-1.19.89-1.8,1.32-.52.38-1.04.76-1.57,1.13-.55.39-1.1.77-1.66,1.15-.69.47-1.39.94-2.09,1.4-2.31,1.52-4.66,2.97-7.07,4.35-.51.3-1.02.59-1.54.87-.63.36-1.27.7-1.91,1.04-.63.34-1.25.67-1.89.99-.38.2-.77.39-1.16.59-1.04.51-2.08,1.01-3.14,1.5-.42.19-.84.38-1.26.57-.69.31-1.39.62-2.1.92,12.43-8.88,23.9-18.65,34.16-29.54,2.33-2.47,4.6-5,6.79-7.59,4.72-5.53,9.13-11.34,13.2-17.44,1.9-2.83,3.72-5.72,5.47-8.68.49-.82.97-1.65,1.44-2.48,15.16-26.62,23.34-55.13,22.64-86.95Z"/>
    <path class="cls-1"
          d="M422.99,360.94c-.47.83-.95,1.66-1.44,2.48-1.75,2.96-3.57,5.85-5.47,8.68-4.07,6.1-8.48,11.91-13.2,17.44-2.19,2.59-4.46,5.12-6.79,7.59-10.26,10.89-21.73,20.66-34.16,29.54.71-.3,1.41-.61,2.1-.92.42-.19.84-.38,1.26-.57,1.06-.49,2.1-.99,3.14-1.5.39-.2.78-.39,1.16-.59.64-.32,1.26-.65,1.89-.99.64-.34,1.28-.68,1.91-1.04.52-.28,1.03-.57,1.54-.87,2.41-1.38,4.76-2.83,7.07-4.35.7-.46,1.4-.93,2.09-1.4.56-.38,1.11-.76,1.66-1.15.53-.37,1.05-.75,1.57-1.13.61-.43,1.21-.87,1.8-1.32.54-.4,1.08-.8,1.61-1.21,1.81-1.38,3.6-2.8,5.36-4.25,2.89-2.4,5.72-4.87,8.49-7.42.39-.35.78-.71,1.17-1.07.36-.34.71-.67,1.06-1,.81-.76,1.62-1.53,2.43-2.31.1-.1.2-.19.3-.29,2.28-2.2,4.52-4.43,6.74-6.69.93-.94,1.85-1.89,2.77-2.84.44.13.88.25,1.33.38-1,9.95-1.42,19.99-3.1,29.83-1.05,6.11-2.4,12.09-4.04,17.94-.3,1.06-.6,2.12-.92,3.17-.13.44-.26.88-.4,1.32-.19.66-.4,1.31-.61,1.96-.15.47-.3.94-.45,1.4-.61,1.86-1.25,3.71-1.93,5.55-.26.73-.53,1.46-.81,2.18-1.12,2.97-2.32,5.91-3.61,8.81-.19.46-.39.92-.6,1.37-.31.71-.63,1.42-.97,2.13-.48,1.04-.97,2.08-1.47,3.11-.07.14-.13.27-.2.41-.31.65-.63,1.29-.96,1.93-1.34,2.69-2.75,5.35-4.22,7.98-.02.04-.03.07-.06.1-.43.77-.86,1.54-1.31,2.31-.3.53-.6,1.05-.91,1.57-.9,1.54-1.83,3.07-2.77,4.58-.46.73-.92,1.46-1.38,2.19-.69,1.08-1.39,2.16-2.1,3.23-3.76,5.69-7.81,11.25-12.12,16.68-17.06,21.5-37.33,39.58-59.78,55.26-.93.65-1.85,1.32-2.75,2-.18.14-.26.41-.88,1.48,20.56-10.72,40.37-21.04,60.98-31.78-.1,2.79-.26,5.55-.47,8.3-1.98,26.34-8.82,50.76-21.19,73.27-1.27,2.32-2.6,4.62-4,6.9-1.85,3.05-3.81,6.06-5.89,9.03-9.68,13.89-21.04,25.66-33.89,35.57-5.09,3.93-10.42,7.57-15.97,10.94-2.02,1.22-4.06,2.41-6.14,3.55-7.98,4.44-16.39,8.34-25.2,11.77,4.89,1.22,14.88,1.12,26.04-1.46,5.92-1.37,12.16-3.43,18.14-6.36,3.95-1.92,7.78-4.23,11.33-6.96-1.01,5.92-3.16,12.57-6.58,19.46-4.47,9-11.11,18.41-20.19,27.09-13.24,12.66-31.66,23.8-56.1,29.91,7.34,1.13,13.33,3.29,17.57,9.56-10.59-1.98-20.62-3.28-29.07,4.18,3.47,1.85,7.11,3.12,9.83,5.46,2.71,2.31,4.49,5.71,6.45,8.32-5.11-1.01-9.81-2.65-14.51-2.69-6.56-.05-8.17,2.08-8.7,8.5-2.16,26.36-4.33,52.72-6.5,79.07-.28,3.33-.55,6.67-.82,10-1.71,20.66-3.41,41.31-5.11,61.96-.08,1.07-.28,2.14-1.11,3.32-.94-3.21-1.94-6.39-2.81-9.62-4.53-16.7-4.07-33.68-2.93-50.72.11-1.65.22-3.29.35-4.94h0c.09-1.38.2-2.74.3-4.1.15-1.97.31-3.93.47-5.9,5.86-70.89,19.65-140.17,43.77-207.36,14.17-39.45,32.12-77.29,50.04-115.13,20.23-42.75,40.61-85.42,60.28-128.43,8.86-19.37,15.82-39.57,19.22-60.76.9-5.56,1.16-11.22,1.71-16.83-.34-.09-.69-.18-1.04-.26-1.33,4.69-2.6,9.4-4.02,14.07-14.39,47.41-34.87,92.19-59.34,135.16-37.28,65.47-67.34,134.03-88.92,206.23-10.63,35.54-19.18,71.59-21.14,108.81-.38,7.25-.95,12.27-9.5,13.89-4.21.8-7.85,4.6-11.44,6.85,2.07-5.7,8.11-11.81,16.55-16.44-4.09-4.93-17.16-8.16-32.42-3.89-2.24.61-4.52,1.4-6.82,2.36,1.84-2.6,4.74-5.03,8.43-7.15l7.66-22.62c-.7-.55-1.41-1.11-2.1-1.67-.7-.56-1.39-1.13-2.08-1.7s-1.37-1.15-2.04-1.73c-.68-.59-1.35-1.18-2.01-1.77-1.52-1.35-3.02-2.74-4.47-4.17t-.01-.01c-.73-.72-1.45-1.44-2.16-2.17-.71-.73-1.41-1.48-2.11-2.23-.69-.75-1.37-1.51-2.05-2.28-.03-.03-.05-.06-.08-.09-1.32-1.51-2.6-3.07-3.83-4.67-.63-.81-1.25-1.64-1.86-2.48-.3-.42-.61-.84-.9-1.27-.24-.33-.47-.66-.7-1-.65-.95-1.29-1.92-1.91-2.91-.53-.84-1.05-1.7-1.55-2.56-1.5-2.52-2.88-5.16-4.16-7.9-.22-.46-.43-.91-.63-1.38-.82-1.83-1.6-3.72-2.32-5.66,11.26,5.44,21.78,9.21,34.15,5.83-5.14-3.98-10.14-7.16-14.3-11.21-7.1-6.92-14.13-14.02-20.34-21.72-6.71-8.31-8.58-18.32-7.1-28.93,2.51-18.02,8.79-34.9,15.56-51.63,2.01-4.98,4.26-9.88,6.59-15.27,13,14.2,28.51,23.33,46.91,28.01-1.11-1.05-2.2-2.12-3.33-3.15-12.44-11.39-23.22-24.08-31.87-38.65-4.8-8.07-5.45-16.16-1.89-24.55,2.85-6.71,5.83-13.45,9.56-19.7,12.3-20.53,27.44-38.96,43.46-56.67.41-.45.88-.85,1.46-1.41,3.82,5.12,7.81,9.97,12.27,14.2.28.28.57.55.87.81.34.32.69.63,1.04.94.7.62,1.41,1.22,2.14,1.8.36.3.72.58,1.09.86.37.28.74.56,1.12.84.35.26.7.51,1.06.76.06.04.12.08.18.13.32.22.64.44.97.65.55.36,1.11.72,1.68,1.06.26.17.52.32.79.47.81.48,1.64.93,2.48,1.36.26.14.51.27.77.38.29.15.59.3.88.43.5.23,1,.46,1.51.67.35.16.71.3,1.08.44.29.13.59.24.89.35.42.16.84.32,1.27.46.49.17.98.34,1.48.49.55.17,1.1.33,1.66.49,2.23.61,4.58,1.09,7.04,1.42-1.7-2.23-2.99-3.67-4.01-5.29-.37-.59-.74-1.19-1.12-1.78-5.46-8.65-11.11-17.2-16.09-26.12-4.82-8.67-3.35-16.61,2.9-24.8,13.92-18.25,27.44-36.85,40.2-55.93,8.1-12.12,15.06-25.09,21.49-38.2,3.88-7.9,5.75-16.78,8.46-25.03.13.18.26.37.4.55,2.34,3.26,4.74,6.59,7.17,9.99l29.24-86.41h4.46c.26-.72.51-1.43.76-2.15.13-.36.25-.72.37-1.08.2-.58.39-1.15.58-1.73.21-.64.41-1.28.6-1.92.13-.38.24-.76.35-1.15.2-.65.39-1.31.57-1.97.15-.51.3-1.02.43-1.54.28-1.04.55-2.09.79-3.14.1-.41.2-.81.29-1.22.06-.27.12-.54.18-.82.08-.37.16-.74.23-1.11.01-.06.03-.12.04-.19.26-1.29.5-2.59.71-3.9.09-.56.18-1.13.26-1.7.05-.36.1-.72.15-1.08.07-.51.13-1.02.19-1.53.09-.82.17-1.65.24-2.48.05-.64.1-1.28.14-1.92.04-.63.07-1.26.09-1.9.02-.41.03-.83.04-1.25.03-1.34.03-2.68-.01-4.03-.15-5.33-1.29-10.63-2.06-16.51,7.78,8.86,15.29,17.41,22.8,25.96.17-.11.34-.23.51-.34-5.12-10.92-10.15-21.88-15.41-32.73-1.41-2.9-1.59-5.29-.38-8.44,6.94-18.04,11.29-36.58,9.54-56.14-1.05-11.71-4.94-22.29-12.4-31.5.23-.29.45-.57.67-.86,5.23,3.51,10.71,6.7,15.67,10.56,24.79,19.31,41.63,44.59,54.12,73.05,7.75,17.65,13.22,36,17.26,54.76.53,2.46,1.04,4.92,1.52,7.39.12.59.12,1.26.04,1.94-.02.22-.06.45-.11.67-.08.39-.18.78-.32,1.15-.04.12-.09.24-.14.36-.12.3-.26.59-.41.85-.09.16-.19.31-.29.45-1.75,2.4-3.51,4.8-5.27,7.19-.16.22-.32.44-.48.66h-.01c-.98,1.35-1.97,2.7-2.97,4.05-.37.5-.74,1.01-1.11,1.51-1.36,1.85-2.73,3.71-4.09,5.56-8.67,11.76-17.39,23.5-26.09,35.25-.74,1-1.5,2.01-1.72,3.55,10.92-9.77,21.83-19.54,33.11-29.64,3.32-2.97,6.67-5.97,10.06-9,.7,31.82-7.48,60.33-22.64,86.95Z"/>
    <path class="cls-1" d="M345.85,639.32c-.25.33-.5.66-.76.99v-.99h.76Z"/>
    <path class="cls-1"
          d="M422.99,360.94c-.47.83-.95,1.66-1.44,2.48-1.75,2.96-3.57,5.85-5.47,8.68-4.07,6.1-8.48,11.91-13.2,17.44l6.81,1.95c-.01.08-.13,1.5-.13,1.5-.01.1-.02.2-.02.3,2.28-2.2,4.52-4.43,6.74-6.69.93-.94,1.85-1.89,2.77-2.84.44.13.88.25,1.33.38-1,9.95-1.42,19.99-3.1,29.83-1.05,6.11-2.4,12.09-4.04,17.94-.3,1.06-.6,2.12-.92,3.17-.13.44-.26.88-.4,1.32-.19.66-.4,1.31-.61,1.96-.15.47-.3.94-.45,1.4-.61,1.86-1.25,3.71-1.93,5.55-.26.73-.53,1.46-.81,2.18-1.12,2.97-2.32,5.91-3.61,8.81-.19.46-.39.92-.6,1.37-.31.71-.63,1.42-.97,2.13-.48,1.04-.97,2.08-1.47,3.11-.07.14-.13.27-.2.41-.31.65-.63,1.29-.96,1.93-1.34,2.69-2.75,5.35-4.22,7.98-.02.04-.03.07-.06.1-.43.77-.86,1.54-1.31,2.31-.3.53-.6,1.05-.91,1.57-.9,1.54-1.83,3.07-2.77,4.58-.46.73-.92,1.46-1.38,2.19-.69,1.08-1.39,2.16-2.1,3.23-3.76,5.69-7.81,11.25-12.12,16.68-17.06,21.5-37.33,39.58-59.78,55.26-.93.65-1.85,1.32-2.75,2-.18.14-.26.41-.88,1.48,20.56-10.72,40.37-21.04,60.98-31.78-.1,2.79-.26,5.55-.47,8.3-1.98,26.34-8.82,50.76-21.19,73.27-1.27,2.32-2.6,4.62-4,6.9-1.85,3.05-3.81,6.06-5.89,9.03-9.68,13.89-21.04,25.66-33.89,35.57-5.09,3.93-10.42,7.57-15.97,10.94-2.02,1.22-4.06,2.41-6.14,3.55-7.98,4.44-16.39,8.34-25.2,11.77,4.89,1.22,14.88,1.12,26.04-1.46,5.92-1.37,12.16-3.43,18.14-6.36,3.95-1.92,7.78-4.23,11.33-6.96-1.01,5.92-3.16,12.57-6.58,19.46-4.47,9-11.11,18.41-20.19,27.09-13.24,12.66-31.66,23.8-56.1,29.91,7.34,1.13,13.33,3.29,17.57,9.56-10.59-1.98-20.62-3.28-29.07,4.18,3.47,1.85,7.11,3.12,9.83,5.46,2.71,2.31,4.49,5.71,6.45,8.32-5.11-1.01-9.81-2.65-14.51-2.69-6.56-.05-8.17,2.08-8.7,8.5-2.16,26.36-4.33,52.72-6.5,79.07-.28,3.33-.55,6.67-.82,10-1.71,20.66-3.41,41.31-5.11,61.96-.08,1.07-.28,2.14-1.11,3.32-.94-3.21-1.94-6.39-2.81-9.62-4.53-16.7-4.07-33.68-2.93-50.72.11-1.65.22-3.29.35-4.94h0c.09-1.38.2-2.74.3-4.1.15-1.97.31-3.93.47-5.9,5.86-70.89,19.65-140.17,43.77-207.36,14.17-39.45,32.12-77.29,50.04-115.13,20.23-42.75,40.61-85.42,60.28-128.43,8.86-19.37,15.82-39.57,19.22-60.76.9-5.56,1.16-11.22,1.71-16.83-.34-.09-.69-.18-1.04-.26-1.33,4.69-2.6,9.4-4.02,14.07-14.39,47.41-34.87,92.19-59.34,135.16-37.28,65.47-67.34,134.03-88.92,206.23-10.63,35.54-19.18,71.59-21.14,108.81-.38,7.25-.95,12.27-9.5,13.89-4.21.8-7.85,4.6-11.44,6.85,2.07-5.7,8.11-11.81,16.55-16.44-4.09-4.93-17.16-8.16-32.42-3.89-2.24.61-4.52,1.4-6.82,2.36,1.84-2.6,4.74-5.03,8.43-7.15l7.66-22.62c-.7-.55-1.41-1.11-2.1-1.67-.7-.56-1.39-1.13-2.08-1.7s-1.37-1.15-2.04-1.73c-.68-.59-1.35-1.18-2.01-1.77-1.52-1.35-3.02-2.74-4.47-4.17t-.01-.01c-.73-.72-1.45-1.44-2.16-2.17-.71-.73-1.41-1.48-2.11-2.23-.69-.75-1.37-1.51-2.05-2.28-.03-.03-.05-.06-.08-.09-1.32-1.51-2.6-3.07-3.83-4.67-.63-.81-1.25-1.64-1.86-2.48-.3-.42-.61-.84-.9-1.27-.24-.33-.47-.66-.7-1-.65-.95-1.29-1.92-1.91-2.91-.53-.84-1.05-1.7-1.55-2.56-1.5-2.52-2.88-5.16-4.16-7.9-.22-.46-.43-.91-.63-1.38-.82-1.83-1.6-3.72-2.32-5.66,11.26,5.44,21.78,9.21,34.15,5.83-5.14-3.98-10.14-7.16-14.3-11.21-7.1-6.92-14.13-14.02-20.34-21.72-6.71-8.31-8.58-18.32-7.1-28.93,2.51-18.02,8.79-34.9,15.56-51.63,2.01-4.98,4.26-9.88,6.59-15.27,13,14.2,28.51,23.33,46.91,28.01-1.11-1.05-2.2-2.12-3.33-3.15-12.44-11.39-23.22-24.08-31.87-38.65-4.8-8.07-5.45-16.16-1.89-24.55,2.85-6.71,5.83-13.45,9.56-19.7,12.3-20.53,27.44-38.96,43.46-56.67.41-.45.88-.85,1.46-1.41,3.82,5.12,7.81,9.97,12.27,14.2.28.28.57.55.87.81.34.32.69.63,1.04.94.7.62,1.41,1.22,2.14,1.8.36.29.72.58,1.09.86.37.28.74.56,1.12.84.35.26.7.51,1.06.76.06.04.12.08.18.13.32.22.64.44.97.65.55.36,1.11.72,1.68,1.06.26.17.52.32.79.47.81.48,1.64.93,2.48,1.36.25.13.51.26.77.38.29.15.59.3.88.43.5.23,1,.46,1.51.67.35.16.71.3,1.08.44.29.13.59.24.89.35.42.16.84.32,1.27.46.49.17.98.34,1.48.49.55.17,1.1.33,1.66.49,2.23.61,4.58,1.09,7.04,1.42-1.7-2.23-2.99-3.67-4.01-5.29-.37-.59-.74-1.19-1.12-1.78-5.46-8.65-11.11-17.2-16.09-26.12-4.82-8.67-3.35-16.61,2.9-24.8,13.92-18.25,27.44-36.85,40.2-55.93,8.1-12.12,15.06-25.09,21.49-38.2,3.88-7.9,5.75-16.78,8.46-25.03.13.18.26.37.4.55,2.34,3.26,4.74,6.59,7.17,9.99l29.24-86.41h4.46c.26-.72.51-1.43.76-2.15.13-.36.25-.72.37-1.08.2-.58.39-1.15.58-1.73.21-.64.41-1.28.6-1.92.13-.38.24-.76.35-1.15.2-.65.39-1.31.57-1.97.15-.51.3-1.02.43-1.54.28-1.04.55-2.09.79-3.14.1-.41.2-.81.29-1.22.06-.27.12-.54.18-.82.08-.37.16-.74.23-1.11.01-.06.03-.12.04-.19.26-1.29.5-2.59.71-3.9.09-.56.18-1.13.26-1.7.05-.36.1-.72.15-1.08.07-.51.13-1.02.19-1.53.09-.82.17-1.65.24-2.48.05-.64.1-1.28.14-1.92.04-.63.07-1.26.09-1.9.02-.41.03-.83.04-1.25.03-1.34.03-2.68-.01-4.03-.15-5.33-1.29-10.63-2.06-16.51,7.78,8.86,15.29,17.41,22.8,25.96.17-.11.34-.23.51-.34-5.12-10.92-10.15-21.88-15.41-32.73-1.41-2.9-1.59-5.29-.38-8.44,6.94-18.04,11.29-36.58,9.54-56.14-1.05-11.71-4.94-22.29-12.4-31.5.23-.29.45-.57.67-.86,5.23,3.51,10.71,6.7,15.67,10.56,24.79,19.31,41.63,44.59,54.12,73.05,7.75,17.65,13.22,36,17.26,54.76.53,2.46,1.04,4.92,1.52,7.39.12.59.12,1.26.04,1.94-.02.22-.06.45-.11.67-.08.39-.18.78-.32,1.15-.04.12-.09.24-.14.36-.12.3-.26.59-.41.85-.09.16-.19.31-.29.45-1.75,2.4-3.51,4.8-5.27,7.19-.16.22-.32.44-.48.66-.99,1.35-1.98,2.7-2.98,4.05l.16,7.44c.06,2.95.05,5.88-.06,8.79,3.32-2.97,6.67-5.97,10.06-9,.7,31.82-7.48,60.33-22.64,86.95Z"/>
    <path class="cls-1"
          d="M422.99,360.94c-.47.83-.95,1.66-1.44,2.48-1.75,2.96-3.57,5.85-5.47,8.68-4.07,6.1-8.48,11.91-13.2,17.44-2.19,2.59-4.46,5.12-6.79,7.59-10.26,10.89-21.73,20.66-34.16,29.54.71-.3,1.41-.61,2.1-.92.42-.19.84-.38,1.26-.57,1.06-.49,2.1-.99,3.14-1.5.39-.2.78-.39,1.16-.59.64-.32,1.26-.65,1.89-.99.64-.34,1.28-.68,1.91-1.04.52-.28,1.03-.57,1.54-.87,2.41-1.38,4.76-2.83,7.07-4.35.7-.46,1.4-.93,2.09-1.4.56-.38,1.11-.76,1.66-1.15.53-.37,1.05-.75,1.57-1.13.61-.43,1.21-.87,1.8-1.32.54-.4,1.08-.8,1.61-1.21,1.81-1.38,3.6-2.8,5.36-4.25,2.89-2.4,5.72-4.87,8.49-7.42.39-.35.78-.71,1.17-1.07.36-.34.71-.67,1.06-1,.81-.76,1.62-1.53,2.43-2.31.1-.1.2-.19.3-.29,2.28-2.2,4.52-4.43,6.74-6.69.93-.94,1.85-1.89,2.77-2.84.44.13.88.25,1.33.38-1,9.95-1.42,19.99-3.1,29.83-1.05,6.11-2.4,12.09-4.04,17.94-.3,1.06-.6,2.12-.92,3.17-.13.44-.26.88-.4,1.32-.19.66-.4,1.31-.61,1.96-.15.47-.3.94-.45,1.4-.61,1.86-1.25,3.71-1.93,5.55-.26.73-.53,1.46-.81,2.18-1.12,2.97-2.32,5.91-3.61,8.81-.19.46-.39.92-.6,1.37-.31.71-.63,1.42-.97,2.13-.48,1.04-.97,2.08-1.47,3.11-.07.14-.13.27-.2.41-.31.65-.63,1.29-.96,1.93-1.34,2.69-2.75,5.35-4.22,7.98-.02.04-.03.07-.06.1-.43.77-.86,1.54-1.31,2.31-.3.53-.6,1.05-.91,1.57-.9,1.54-1.83,3.07-2.77,4.58-.46.73-.92,1.46-1.38,2.19-.69,1.08-1.39,2.16-2.1,3.23-3.76,5.69-7.81,11.25-12.12,16.68-17.06,21.5-37.33,39.58-59.78,55.26-.93.65-1.85,1.32-2.75,2-.18.14-.26.41-.88,1.48,20.56-10.72,40.37-21.04,60.98-31.78-.1,2.79-.26,5.55-.47,8.3-1.98,26.34-8.82,50.76-21.19,73.27-1.27,2.32-2.6,4.62-4,6.9-1.85,3.05-3.81,6.06-5.89,9.03-9.68,13.89-21.04,25.66-33.89,35.57-5.09,3.93-10.42,7.57-15.97,10.94-2.02,1.22-4.06,2.41-6.14,3.55-7.98,4.44-16.39,8.34-25.2,11.77,4.89,1.22,14.88,1.12,26.04-1.46,5.92-1.37,12.16-3.43,18.14-6.36,3.95-1.92,7.78-4.23,11.33-6.96-1.01,5.92-3.16,12.57-6.58,19.46-4.47,9-11.11,18.41-20.19,27.09-13.24,12.66-31.66,23.8-56.1,29.91,7.34,1.13,13.33,3.29,17.57,9.56-10.59-1.98-20.62-3.28-29.07,4.18,3.47,1.85,7.11,3.12,9.83,5.46,2.71,2.31,4.49,5.71,6.45,8.32-5.11-1.01-9.81-2.65-14.51-2.69-6.56-.05-8.17,2.08-8.7,8.5-2.16,26.36-4.33,52.72-6.5,79.07-.28,3.33-.55,6.67-.82,10-1.71,20.66-3.41,41.31-5.11,61.96-.08,1.07-.28,2.14-1.11,3.32-.94-3.21-1.94-6.39-2.81-9.62-4.53-16.7-4.07-33.68-2.93-50.72.11-1.65.22-3.29.35-4.94h0c.09-1.38.2-2.74.3-4.1.15-1.97.31-3.93.47-5.9,5.86-70.89,19.65-140.17,43.77-207.36,14.17-39.45,32.12-77.29,50.04-115.13,20.23-42.75,40.61-85.42,60.28-128.43,8.86-19.37,15.82-39.57,19.22-60.76.9-5.56,1.16-11.22,1.71-16.83-.34-.09-.69-.18-1.04-.26-1.33,4.69-2.6,9.4-4.02,14.07-14.39,47.41-34.87,92.19-59.34,135.16-37.28,65.47-67.34,134.03-88.92,206.23-10.63,35.54-19.18,71.59-21.14,108.81-.38,7.25-.95,12.27-9.5,13.89-4.21.8-7.85,4.6-11.44,6.85,2.07-5.7,8.11-11.81,16.55-16.44-4.09-4.93-17.16-8.16-32.42-3.89-2.24.61-4.52,1.4-6.82,2.36,1.84-2.6,4.74-5.03,8.43-7.15,7.27-4.19,17.57-7.18,28.55-7.96-7.21-4.67-14.26-9.46-20.89-14.66-.7-.55-1.41-1.11-2.1-1.67-.7-.56-1.39-1.13-2.08-1.7s-1.37-1.15-2.04-1.73c-.68-.59-1.35-1.18-2.01-1.77-1.52-1.35-3.02-2.74-4.47-4.17t-.01-.01c-.73-.72-1.45-1.44-2.16-2.17-.71-.73-1.41-1.48-2.11-2.23-.69-.75-1.37-1.51-2.05-2.28-.03-.03-.05-.06-.08-.09-1.32-1.51-2.6-3.07-3.83-4.67-.63-.81-1.25-1.64-1.86-2.48-.3-.42-.61-.84-.9-1.27-.24-.33-.47-.66-.7-1-.65-.95-1.29-1.92-1.91-2.91-.53-.84-1.05-1.7-1.55-2.56-1.5-2.52-2.88-5.16-4.16-7.9-.22-.46-.43-.91-.63-1.38-.82-1.83-1.6-3.72-2.32-5.66,11.26,5.44,21.78,9.21,34.15,5.83-5.14-3.98-10.14-7.16-14.3-11.21-7.1-6.92-14.13-14.02-20.34-21.72-6.71-8.31-8.58-18.32-7.1-28.93,2.51-18.02,8.79-34.9,15.56-51.63,2.01-4.98,4.26-9.88,6.59-15.27,13,14.2,28.51,23.33,46.91,28.01-1.11-1.05-2.2-2.12-3.33-3.15-12.44-11.39-23.22-24.08-31.87-38.65-4.8-8.07-5.45-16.16-1.89-24.55,2.85-6.71,5.83-13.45,9.56-19.7,12.3-20.53,27.44-38.96,43.46-56.67.41-.45.88-.85,1.46-1.41,3.82,5.12,7.81,9.97,12.27,14.2.28.28.57.55.87.81.34.32.69.63,1.04.94.7.62,1.41,1.22,2.14,1.8.36.3.72.58,1.09.86.37.28.74.56,1.12.84.35.26.7.51,1.06.76.06.04.12.08.18.13.32.22.64.44.97.65.55.36,1.11.72,1.68,1.06.26.17.52.32.79.47.81.48,1.64.93,2.48,1.36.26.14.51.27.77.38.29.15.59.3.88.43.5.23,1,.46,1.51.67.35.16.71.3,1.08.44.29.13.59.24.89.35.42.16.84.32,1.27.46.49.17.98.34,1.48.49.55.17,1.1.33,1.66.49,2.23.61,4.58,1.09,7.04,1.42-1.7-2.23-2.99-3.67-4.01-5.29-.37-.59-.74-1.19-1.12-1.78-5.46-8.65-11.11-17.2-16.09-26.12-4.82-8.67-3.35-16.61,2.9-24.8,13.92-18.25,27.44-36.85,40.2-55.93,8.1-12.12,15.06-25.09,21.49-38.2,3.88-7.9,5.75-16.78,8.46-25.03.13.18.26.37.4.55,2.34,3.26,4.74,6.59,7.17,9.99,5.21,7.23,10.63,14.76,16.22,22.54-2.03-5.61-3.95-10.49-5.56-15.47-4.49-13.87-3.79-27.64,1.63-41.09,6.45-16.02,13.41-31.83,19.72-47.9.59-1.49,1.15-2.99,1.69-4.49.26-.72.51-1.43.76-2.15.13-.36.25-.72.37-1.08.2-.58.39-1.15.58-1.73.21-.64.41-1.28.6-1.92.13-.38.24-.76.35-1.15.2-.65.39-1.31.57-1.97.15-.51.3-1.02.43-1.54.28-1.04.55-2.09.79-3.14.1-.41.2-.81.29-1.22.06-.27.12-.54.18-.82.08-.37.16-.74.23-1.11.01-.06.03-.12.04-.19.26-1.29.5-2.59.71-3.9.09-.56.18-1.13.26-1.7.05-.36.1-.72.15-1.08.07-.51.13-1.02.19-1.53.09-.82.17-1.65.24-2.48.05-.64.1-1.28.14-1.92.04-.63.07-1.26.09-1.9.02-.41.03-.83.04-1.25.03-1.34.03-2.68-.01-4.03-.15-5.33-1.29-10.63-2.06-16.51,7.78,8.86,15.29,17.41,22.8,25.96.17-.11.34-.23.51-.34-5.12-10.92-10.15-21.88-15.41-32.73-1.41-2.9-1.59-5.29-.38-8.44,6.94-18.04,11.29-36.58,9.54-56.14-1.05-11.71-4.94-22.29-12.4-31.5.23-.29.45-.57.67-.86,5.23,3.51,10.71,6.7,15.67,10.56,24.79,19.31,41.63,44.59,54.12,73.05,7.75,17.65,13.22,36,17.26,54.76.53,2.46,1.04,4.92,1.52,7.39.12.59.12,1.26.04,1.94-.02.22-.06.45-.11.67-.08.39-.18.78-.32,1.15-.04.12-.09.24-.14.36-.12.3-.26.59-.41.85-.09.16-.19.31-.29.45-1.75,2.4-3.51,4.8-5.27,7.19-.16.22-.32.44-.48.66h-.01c-.98,1.35-1.97,2.7-2.97,4.05-.37.5-.74,1.01-1.11,1.51-1.36,1.85-2.73,3.71-4.09,5.56-8.67,11.76-17.39,23.5-26.09,35.25-.74,1-1.5,2.01-1.72,3.55,10.92-9.77,21.83-19.54,33.11-29.64,3.32-2.97,6.67-5.97,10.06-9,.7,31.82-7.48,60.33-22.64,86.95Z"/>
</svg>